<svg width="68" height="68" viewBox="0 0 68 68" fill="none" xmlns="http://www.w3.org/2000/svg">
<mask id="mask0_5494_549" style="mask-type:alpha" maskUnits="userSpaceOnUse" x="0" y="1" width="68" height="67">
<path d="M34.0022 68C52.7379 68 67.9262 53.0015 67.9262 34.5C67.9262 15.9985 52.7379 1 34.0022 1C15.2664 1 0.078125 15.9985 0.078125 34.5C0.078125 53.0015 15.2664 68 34.0022 68Z" fill="#945EFF"/>
</mask>
<g mask="url(#mask0_5494_549)">
<path d="M38.6602 20.2939L38.6676 20.2876L38.6602 20.2939Z" fill="#FAB29A"/>
<path d="M36.8359 31.9498L36.8481 31.9429L36.8532 31.8374L36.8359 31.9498Z" fill="#FAB29A"/>
<path d="M38.6719 20.2839V20.2871H38.675V20.2808L38.6719 20.2839Z" fill="#FAB29A"/>
<path d="M38.6602 20.2939L38.6676 20.2876L38.6602 20.2939Z" fill="#FAB29A"/>
<path d="M36.8359 31.9498L36.8481 31.9429L36.8532 31.8374L36.8359 31.9498Z" fill="#FAB29A"/>
<path d="M18.0652 27.0351C18.5828 26.8682 21.264 27.0282 21.7125 28.9328C22.1611 30.8375 22.2514 31.9264 22.3387 32.3624C22.3844 32.589 22.8725 33.5889 23.3353 34.504C23.9289 31.9723 24.6921 29.9111 24.6921 29.9111L25.301 17.8813C25.3117 17.6722 25.3706 17.467 25.4744 17.2773C25.5782 17.0877 25.7247 16.9173 25.9058 16.7759C26.0868 16.6346 26.2987 16.525 26.5295 16.4534C26.7602 16.3819 27.0052 16.3498 27.2505 16.3589C27.7455 16.3774 28.2117 16.5625 28.5467 16.8738C28.8816 17.185 29.0578 17.5969 29.0366 18.0188L28.4095 30.437C28.5505 30.4603 28.6946 30.4811 28.8418 30.5044L29.6973 13.5513C29.7079 13.342 29.7667 13.1365 29.8705 12.9466C29.9742 12.7567 30.1208 12.5861 30.302 12.4445C30.4831 12.3029 30.6952 12.1931 30.9261 12.1213C31.157 12.0496 31.4023 12.0173 31.6478 12.0264C31.8931 12.0355 32.1339 12.0857 32.3564 12.1741C32.579 12.2626 32.7789 12.3875 32.9447 12.5418C33.1106 12.6961 33.2392 12.8768 33.3231 13.0734C33.407 13.2701 33.4447 13.4789 33.4339 13.688L32.5551 31.103C32.6393 31.116 32.7225 31.1324 32.8068 31.1454L33.5314 16.7871C33.5535 16.365 33.7712 15.9677 34.1367 15.6823C34.5022 15.3969 34.9856 15.2467 35.4809 15.2648C35.9764 15.2834 36.4429 15.469 36.7778 15.7808C37.1128 16.0925 37.2887 16.5049 37.267 16.9272L36.512 31.8754L36.8357 31.9489L36.8479 31.942L37.3695 21.617C37.3857 21.3034 37.5221 21.0029 37.7578 20.7617C37.9936 20.5205 38.3156 20.3518 38.6746 20.2815C38.8197 20.2521 38.969 20.2402 39.1181 20.2461C39.5651 20.2625 39.9862 20.4295 40.2887 20.7104C40.5913 20.9913 40.7506 21.3632 40.7317 21.7442L40.14 33.46C40.14 33.4955 40.1329 33.5318 40.1288 33.5673C40.1207 35.4088 38.8441 40.8554 38.7801 42.1243C38.7334 43.0385 37.9094 44.5038 37.3654 45.3791L36.858 55.4697L24.3968 55.013L24.7905 47.0952C24.2601 46.6318 23.7722 46.1345 23.3312 45.6074C23.2647 45.5274 23.2111 45.4402 23.1719 45.348C23.1719 45.348 20.2593 40.5215 20.2035 40.179C20.1476 39.8365 18.2753 30.8167 18.2976 30.4145C18.3199 30.0123 17.5486 27.2012 18.0652 27.0351ZM38.6665 20.2885V20.2936V20.2885Z" fill="#FAB29A"/>
<path d="M38.6602 20.2939L38.6676 20.2876L38.6602 20.2939Z" fill="#FAB29A"/>
<path d="M38.6602 20.2939L38.6676 20.2876L38.6602 20.2939Z" fill="#FAB29A"/>
<path d="M36.8359 31.9498L36.8481 31.9429L36.8532 31.8374L36.8359 31.9498Z" fill="#FAB29A"/>
<g style="mix-blend-mode:multiply" opacity="0.5">
<path d="M38.8037 20.2651C38.8037 20.2651 38.2912 20.49 38.2527 21.4977C38.2141 22.5054 37.7655 30.6437 37.5859 31.142C37.4063 31.6402 36.8359 31.9498 36.8359 31.9498L37.3616 21.5202C37.3616 21.5202 37.4682 20.4442 38.8037 20.2651Z" fill="#FAB29A"/>
</g>
<g style="mix-blend-mode:multiply" opacity="0.5">
<path d="M35.4778 15.2648C35.4778 15.2648 34.5928 15.3712 34.5046 17.1236C34.4163 18.876 34.2305 29.1854 33.854 30.0063C33.4775 30.8271 32.8047 31.1497 32.8047 31.1497L33.5445 16.4965C33.5445 16.4965 33.9403 15.1783 35.4778 15.2648Z" fill="#FAB29A"/>
</g>
<g style="mix-blend-mode:multiply" opacity="0.5">
<path d="M31.6499 12.0308C31.6499 12.0308 30.6412 12.1536 30.6229 13.5358C30.6046 14.918 30.2789 28.01 29.6517 29.1915C29.0245 30.373 28.8398 30.5019 28.8398 30.5019L29.6954 13.5487C29.6954 13.5487 29.739 12.0385 31.6499 12.0308Z" fill="#FAB29A"/>
</g>
<g style="mix-blend-mode:multiply" opacity="0.5">
<path d="M27.251 16.3593C27.251 16.3593 26.4189 16.6966 26.359 17.8799C26.2991 19.0631 26.2118 28.9582 25.8516 30.0204C25.4913 31.0826 24.3212 33.5399 23.3398 34.5043C23.3398 34.5043 23.6524 33.2164 24.0208 31.9683C24.7484 29.5057 24.6886 30.2773 24.6967 29.9114C24.718 29.0136 25.3056 17.8816 25.3056 17.8816C25.3056 17.8816 25.3655 16.2961 27.251 16.3593Z" fill="#FAB29A"/>
</g>
<g style="mix-blend-mode:multiply" opacity="0.5">
<path d="M24.3555 52.2614L24.6975 49.2453C24.6762 49.2124 24.7736 48.7505 24.7533 48.7168L37.1952 49.4909L36.8055 53.1982L24.3555 52.2614Z" fill="#CC8A79"/>
</g>
<path d="M23.6992 57.7896L23.8839 54.0132L24.094 49.7446L38.869 50.2238L38.7726 54.514L38.7097 57.3234L23.6992 57.7896Z" fill="white"/>
<g style="mix-blend-mode:multiply">
<path d="M23.6992 57.7896L23.8839 54.0132L38.7726 54.514L38.7097 57.3234L23.6992 57.7896Z" fill="#B3B3B3"/>
</g>
<path d="M39.6077 73.4244L22.5391 72.0319L23.1165 54.9775L24.3434 55.032L25.8596 55.0692L28.0821 55.1246L31.6462 55.2119L32.5505 55.2353L38.8303 55.3884L39.289 55.3996L39.9324 55.4161L39.291 63.6435L39.6077 73.4244Z" fill="black"/>
<path d="M24.3492 61.4005C24.1836 61.5138 23.9933 61.5983 23.7894 61.649C23.5855 61.6997 23.3718 61.7157 23.1606 61.696C22.9494 61.6763 22.7448 61.6214 22.5586 61.5343C22.3723 61.4472 22.208 61.3297 22.075 61.1886C21.942 61.0474 21.8429 60.8854 21.7834 60.7116C21.724 60.5379 21.7052 60.3558 21.7283 60.1759C21.7514 59.996 21.8159 59.8217 21.918 59.663C22.0202 59.5043 22.158 59.3644 22.3236 59.2511C22.4891 59.1376 22.6791 59.053 22.883 59.0022C23.0868 58.9513 23.3004 58.9353 23.5116 58.9549C23.7227 58.9745 23.9272 59.0294 24.1135 59.1164C24.2997 59.2034 24.4639 59.3209 24.5968 59.4621C24.8656 59.7471 24.9905 60.1115 24.944 60.475C24.8976 60.8385 24.6836 61.1714 24.3492 61.4005Z" fill="#333333"/>
</g>
<path d="M37.2967 33.228C34.6016 33.228 32.3047 35.2949 32.3047 37.9818C32.3047 39.8336 33.1507 41.392 34.2713 42.6849C35.3919 43.9777 36.8286 45.0524 38.1306 45.9567L40.3779 47.5171C40.498 47.6009 40.6402 47.6457 40.7857 47.6457C40.9312 47.6457 41.0734 47.6009 41.1935 47.5171L43.4408 45.9567C44.7428 45.0524 46.1835 43.9725 47.3001 42.6849C48.4166 41.3972 49.2667 39.8336 49.2667 37.9818C49.2667 35.2949 46.9698 33.228 44.2747 33.228C42.8856 33.228 41.6626 33.8966 40.7862 34.7606C39.9047 33.8966 38.6889 33.228 37.2967 33.228Z" fill="#389FFF"/>
</svg>
