<svg width="68" height="68" viewBox="0 0 68 68" fill="none" xmlns="http://www.w3.org/2000/svg">
<mask id="mask0_5494_552" style="mask-type:alpha" maskUnits="userSpaceOnUse" x="1" y="2" width="66" height="65">
<path d="M33.9128 67C15.7364 67 1.00143 52.4493 1.00143 34.5C1.00143 16.5507 15.7364 2 33.9128 2C52.0893 2 66.8242 16.5507 66.8242 34.5C66.8242 52.4493 52.0893 67 33.9128 67Z" fill="#945EFF"/>
</mask>
<g mask="url(#mask0_5494_552)">
<path d="M40.2552 20.9238C42.6086 20.9238 44.6133 22.6936 44.6133 24.9921C44.6133 26.5768 43.8749 27.913 42.8967 29.0187C41.9185 30.1243 40.6637 31.0456 39.5263 31.8199L37.5641 33.1554C37.4593 33.2272 37.3352 33.2656 37.2082 33.2656C37.0812 33.2656 36.9572 33.2272 36.8524 33.1554L34.8902 31.8199C33.7528 31.0456 32.4951 30.1207 31.5197 29.0187C30.5444 27.9166 29.8032 26.5782 29.8032 24.9921C29.8032 22.6936 31.8079 20.9238 34.1619 20.9238C35.375 20.9238 36.4425 21.4965 37.2082 22.2362C37.9747 21.4965 39.0415 20.9238 40.2552 20.9238Z" fill="#389FFF"/>
<path d="M51.6223 36.8234C51.6223 36.8234 52.8507 36.3006 53.601 38.2997C53.7916 38.8003 47.7886 41.4523 47.7886 41.4523L39.0259 44.4759L39.5023 41.5669L51.6223 36.8234Z" fill="#FAB29A"/>
<g style="mix-blend-mode:multiply" opacity="0.5">
<path d="M24.4435 45.5439C24.4435 45.5439 24.9424 45.6225 25.724 45.7393C28.3791 46.1364 34.1006 46.8402 34.794 46.508C34.794 46.508 52.1322 38.423 52.4372 37.8482C52.7423 37.2733 52.4476 35.3329 50.7542 35.4526C49.0608 35.5722 45.5042 37.3658 45.5042 37.3658L41.7543 38.2159L41.3458 38.3083L39.867 38.6439L28.3813 40.0283L24.4435 45.5439Z" fill="#FAB29A"/>
</g>
<path d="M24.2252 45.424C24.2252 45.424 24.7241 45.5026 25.5056 45.6195C28.1607 46.0165 34.0772 46.8516 34.7706 46.5193C34.7706 46.5193 52.1356 38.2178 52.4406 37.6408C52.7457 37.0638 52.2292 35.2131 50.5358 35.3327C48.8424 35.4523 45.2859 37.246 45.2859 37.246L41.536 38.096L41.1274 38.1885L39.6487 38.524L28.1629 39.9085L24.2252 45.424Z" fill="#FAB29A"/>
<g style="mix-blend-mode:multiply" opacity="0.5">
<path d="M12.1871 43.4639L16.4042 49.5991C17.0932 49.1096 21.3086 46.1159 21.8114 45.7693C22.359 45.391 24.4708 45.514 24.4708 45.514C24.4708 45.514 24.3827 45.5306 25.1697 45.5848L33.0501 42.1681C33.0501 42.1681 37.225 42.6344 40.1961 42.0479C42.998 41.4942 43.2445 39.1528 41.8539 38.1256C41.7687 38.0627 41.6792 38.0059 41.5861 37.9556C41.386 37.854 41.1735 37.7795 40.9541 37.7341C38.73 37.2213 33.7369 37.9633 33.7369 37.9633C33.7369 37.9633 34.3262 38.2563 27.9798 37.1C21.6334 35.9438 20.7357 37.4821 20.1333 37.8088C19.5308 38.1356 12.1871 43.4639 12.1871 43.4639Z" fill="#FAB29A"/>
</g>
<path d="M11.858 43.1685L16.4585 49.8691L16.5538 49.8016C17.2433 49.312 21.4582 46.3184 21.9609 45.9717C22.5086 45.5935 25.1665 45.5841 25.1665 45.5841L32.7166 41.8738C32.7166 41.8738 36.8926 42.3379 39.8637 41.752C42.2768 41.2757 42.7943 39.4743 42.0046 38.3264C41.8688 38.1296 41.7004 37.958 41.5068 37.8191C41.43 37.7548 41.3451 37.7012 41.2543 37.6596C39.2903 36.8977 33.6417 37.9454 33.6417 37.9454C33.6417 37.9454 33.9927 37.9592 27.6463 36.8035C21.2999 35.6478 20.4044 37.1878 19.8053 37.5129C19.2061 37.838 11.858 43.1685 11.858 43.1685Z" fill="#FAB29A"/>
<g style="mix-blend-mode:multiply" opacity="0.5">
<path d="M51.4044 39.7222C51.4044 39.7222 51.3129 39.4946 51.5747 39.1535C51.8365 38.8124 53.503 38.0382 53.5288 38.0958C53.5545 38.1534 53.6641 38.4248 53.6641 38.4248C53.6641 38.4248 52.8962 38.9918 51.4044 39.7222Z" fill="#FAB29A"/>
</g>
<g style="mix-blend-mode:multiply" opacity="0.5">
<path d="M50.0969 39.0333C50.0969 39.0333 50.0054 38.8057 50.2667 38.4646C50.5279 38.1235 52.195 37.3487 52.2202 37.4085C52.2454 37.4684 52.3555 37.7375 52.3555 37.7375C52.3555 37.7375 51.5898 38.3023 50.0969 39.0333Z" fill="#FAB29A"/>
</g>
<g style="mix-blend-mode:multiply" opacity="0.5">
<path d="M33.028 37.8076L35.2148 38.7169L33.6556 37.9438L33.028 37.8076Z" fill="#FAB29A"/>
</g>
<g style="mix-blend-mode:multiply" opacity="0.5">
<path d="M38.608 41.441C38.2339 41.3546 38.1227 41.0827 38.0987 40.6801C38.0746 40.2776 37.8325 39.0914 37.9776 38.9081C38.1227 38.7248 40.7483 37.7175 41.5216 39.2171C42.1602 40.4559 40.5791 41.0268 40.222 41.1409C40.1283 41.1741 38.8051 41.487 38.608 41.441Z" fill="#FAB29A"/>
</g>
<g style="mix-blend-mode:multiply" opacity="0.5">
<path d="M16.0942 50.0146L18.0028 48.7293C18.0324 48.7293 18.3862 48.4928 18.418 48.494L14.3323 41.4307L11.8733 42.9657L16.0942 50.0146Z" fill="#CC8A79"/>
</g>
<path d="M12.4349 52.3212L15.0139 50.9036L17.9297 49.2999L13.2849 40.5869L10.3214 42.1297L8.38049 43.1403L12.4349 52.3212Z" fill="white"/>
<g style="mix-blend-mode:multiply">
<path d="M12.4327 52.3214L15.0117 50.9038L10.3193 42.1299L8.37832 43.1405L12.4327 52.3214Z" fill="#B3B3B3"/>
</g>
<path d="M-3.108 48.1737L2.84243 57.9493L14.5664 51.6995L14.1699 50.9813L13.7016 50.0831L13.0149 48.7662L11.914 46.6552L11.6342 46.1192L9.69488 42.399L9.55358 42.1271L9.35478 41.7461L3.80469 44.979L-3.108 48.1737Z" fill="black"/>
<path d="M8.75944 53.3707C8.71321 53.5796 8.7293 53.7978 8.80567 53.9975C8.88204 54.1972 9.01525 54.3695 9.18847 54.4926C9.3617 54.6158 9.56714 54.6842 9.77884 54.6893C9.99053 54.6944 10.199 54.6359 10.3778 54.5212C10.5566 54.4066 10.6978 54.2408 10.7834 54.045C10.8691 53.8492 10.8955 53.6322 10.8591 53.4212C10.8228 53.2103 10.7254 53.015 10.5793 52.86C10.4332 52.705 10.2449 52.5973 10.0382 52.5506C9.90102 52.5195 9.75909 52.5161 9.62055 52.5405C9.48201 52.5649 9.34958 52.6166 9.23083 52.6928C9.11208 52.769 9.00933 52.868 8.92845 52.9843C8.84757 53.1006 8.79014 53.2319 8.75944 53.3707Z" fill="#333333"/>
</g>
</svg>
