<svg width="68" height="68" viewBox="0 0 68 68" fill="none" xmlns="http://www.w3.org/2000/svg">
<mask id="mask0_5494_547" style="mask-type:alpha" maskUnits="userSpaceOnUse" x="0" y="1" width="68" height="68">
<path d="M33.9983 68.0002C52.734 68.0002 67.9223 53.0018 67.9223 34.5002C67.9223 15.9987 52.734 1.00024 33.9983 1.00024C15.2625 1.00024 0.0742188 15.9987 0.0742188 34.5002C0.0742188 53.0018 15.2625 68.0002 33.9983 68.0002Z" fill="#945EFF"/>
</mask>
<g mask="url(#mask0_5494_547)">
<path d="M40.8661 33.0013C40.8689 32.9987 40.8716 32.9959 40.874 32.993L40.8516 32.9019L40.8661 33.0013Z" fill="#FAB29A"/>
<path d="M39.3589 22.7046L39.3596 22.7077L39.3627 22.7061L39.3613 22.7009L39.3589 22.7046Z" fill="#FAB29A"/>
<path d="M40.8661 33.0013C40.8689 32.9987 40.8716 32.9959 40.874 32.993L40.8516 32.9019L40.8661 33.0013Z" fill="#FAB29A"/>
<path d="M26.0736 32.71C26.4106 32.4614 28.3899 32.0421 29.1771 33.5678C29.9643 35.0934 30.2947 36.0013 30.4637 36.3545C30.5525 36.5366 31.1486 37.2861 31.7056 37.9679C31.5211 35.6927 31.5735 33.7824 31.5735 33.7824L29.0877 23.4302C29.0448 23.25 29.0378 23.0632 29.0671 22.8804C29.0964 22.6975 29.1615 22.5222 29.2586 22.3645C29.3557 22.2069 29.4829 22.0698 29.6329 21.9613C29.783 21.8528 29.953 21.775 30.1332 21.7322C30.4962 21.6454 30.8788 21.7063 31.197 21.9014C31.5151 22.0965 31.7429 22.41 31.8301 22.7729L34.393 33.4599C34.5004 33.4508 34.6104 33.4383 34.7225 33.4275L31.2247 18.8423C31.1816 18.662 31.1744 18.475 31.2036 18.2919C31.2328 18.1088 31.2978 17.9333 31.395 17.7754C31.4921 17.6174 31.6194 17.4802 31.7696 17.3715C31.9198 17.2629 32.09 17.1849 32.2704 17.1421C32.6342 17.0556 33.0174 17.1171 33.3358 17.3132C33.6543 17.5092 33.8818 17.8237 33.9684 18.1875L37.5617 33.1742C37.6262 33.1687 37.6906 33.1646 37.7545 33.1583L34.7917 20.8007C34.7485 20.6204 34.7414 20.4334 34.7706 20.2504C34.7998 20.0674 34.8648 19.8919 34.962 19.7341C35.0591 19.5762 35.1864 19.439 35.3366 19.3304C35.4868 19.2218 35.6569 19.1439 35.8373 19.1012C36.0174 19.0583 36.2041 19.0513 36.3869 19.0806C36.5697 19.1099 36.7449 19.175 36.9025 19.2721C37.0602 19.3691 37.1971 19.4963 37.3056 19.6464C37.414 19.7964 37.4918 19.9664 37.5345 20.1465L40.6197 33.0112L40.8713 33.0067C40.8741 33.0041 40.8767 33.0013 40.8792 32.9984L38.7479 24.1127C38.6835 23.8425 38.7094 23.5586 38.8215 23.3045C38.9337 23.0504 39.1259 22.84 39.3689 22.7054C39.4672 22.6506 39.5725 22.6095 39.6819 22.5834C40.0098 22.505 40.3553 22.5599 40.6427 22.7362C40.93 22.9124 41.1357 23.1955 41.2144 23.5232L43.6317 33.605C43.6395 33.6367 43.6443 33.668 43.6499 33.6995C44.0912 35.2663 44.4893 40.1605 44.7512 41.2529C44.9395 42.0395 44.6985 43.4557 44.5176 44.3123L46.6 52.9967L37.4594 55.1883L35.8246 48.3718L35.82 48.3712C35.3234 48.0871 34.8493 47.7652 34.4019 47.4086C34.3346 47.3556 34.2747 47.2937 34.224 47.2246C34.224 47.2246 30.9412 43.7241 30.816 43.4446C30.6909 43.1651 27.1448 35.8834 27.062 35.5373C26.9793 35.1911 25.7397 32.9581 26.0736 32.71ZM39.36 22.709L39.3594 22.7143L39.36 22.709Z" fill="#FAB29A"/>
<path d="M40.8661 33.0013C40.8689 32.9987 40.8716 32.9959 40.874 32.993L40.8516 32.9019L40.8661 33.0013Z" fill="#FAB29A"/>
<g style="mix-blend-mode:multiply" opacity="0.5">
<path d="M39.4549 22.661C39.4549 22.661 39.1376 22.958 39.3552 23.8235C39.5728 24.6889 41.2234 31.699 41.215 32.16C41.2065 32.621 40.8671 33.0017 40.8671 33.0017L38.7155 24.0267C38.7155 24.0267 38.5309 23.0896 39.4549 22.661Z" fill="#FAB29A"/>
</g>
<g style="mix-blend-mode:multiply" opacity="0.5">
<path d="M35.8328 19.0992C35.8328 19.0992 35.2173 19.3722 35.5792 20.8805C35.9411 22.3888 38.3108 31.1915 38.2371 31.9667C38.1635 32.7419 37.7532 33.1559 37.7532 33.1559L34.7298 20.5456C34.7298 20.5456 34.7019 19.342 35.8328 19.0992Z" fill="#FAB29A"/>
</g>
<g style="mix-blend-mode:multiply" opacity="0.5">
<path d="M32.2672 17.1419C32.2672 17.1419 31.5661 17.4557 31.8884 18.6375C32.2107 19.8194 35.1555 31.0137 34.9888 32.1499C34.8221 33.2861 34.7224 33.4277 34.7224 33.4277L31.2246 18.8425C31.2246 18.8425 30.8851 17.5447 32.2672 17.1419Z" fill="#FAB29A"/>
</g>
<g style="mix-blend-mode:multiply" opacity="0.5">
<path d="M30.1354 21.7338C30.1354 21.7338 29.6137 22.1925 29.858 23.2112C30.1024 24.23 32.4425 32.6596 32.4383 33.6377C32.4341 34.6158 32.1839 36.9473 31.7064 37.9694C31.7064 37.9694 31.621 36.8099 31.5844 35.673C31.513 33.4318 31.657 34.0969 31.5743 33.7839C31.3722 33.0165 29.0885 23.4316 29.0885 23.4316C29.0885 23.4316 28.7542 22.069 30.1354 21.7338Z" fill="#FAB29A"/>
</g>
<g style="mix-blend-mode:multiply" opacity="0.5">
<path d="M26.8236 32.4863C26.8236 32.4863 28.1479 34.1532 27.9449 35.0535C27.7419 35.9537 27.3955 36.3082 27.3955 36.3082L26.3546 33.9629L26.0287 33.0293C26.0287 33.0293 25.716 32.5362 26.8236 32.4863Z" fill="#FAB29A"/>
</g>
<g style="mix-blend-mode:multiply" opacity="0.5">
<path d="M40.5942 31.349C40.5942 31.349 41.1303 31.9268 40.2726 33.8168C39.4149 35.7069 37.2723 41.8317 36.5748 42.3977C35.8773 42.9637 34.2325 45.6134 32.4863 46.133C30.7402 46.6527 33.8067 41.2919 33.8067 41.2919L40.5942 31.349Z" fill="#CC8A79"/>
</g>
<path d="M26.8109 21.8784L26.8047 21.8706L26.8109 21.8784Z" fill="#FAB29A"/>
<path d="M25.7702 32.2218C25.7702 32.2218 25.7639 32.2165 25.7627 32.2132L25.7803 32.1221L25.7702 32.2218Z" fill="#FAB29A"/>
<path d="M26.8 21.8667L26.7996 21.8702L26.7961 21.8698L26.798 21.8629L26.8 21.8667Z" fill="#FAB29A"/>
<path d="M26.8109 21.8784L26.8047 21.8706L26.8109 21.8784Z" fill="#FAB29A"/>
<path d="M25.7702 32.2218C25.7702 32.2218 25.7639 32.2165 25.7627 32.2132L25.7803 32.1221L25.7702 32.2218Z" fill="#FAB29A"/>
<path d="M40.5348 31.2559C40.1902 31.0224 38.1905 30.694 37.4737 32.2548C36.7569 33.8157 36.4677 34.7358 36.3154 35.0968C36.2351 35.283 35.6732 36.0589 35.1479 36.7652C35.229 34.484 35.0891 32.5782 35.0891 32.5782L37.0972 22.1237C37.1672 21.7571 37.089 21.3778 36.8797 21.0689C36.6704 20.7599 36.3472 20.5466 35.9809 20.4756C35.6144 20.4054 35.2349 20.4835 34.9259 20.6928C34.617 20.9021 34.4036 21.2255 34.3328 21.5919L32.2537 32.3846C32.1457 32.3797 32.0357 32.3722 31.9231 32.3675L34.752 17.6371C34.8226 17.2703 34.7448 16.8904 34.5355 16.581C34.3263 16.2715 34.0027 16.0578 33.636 15.9868C33.2694 15.9166 32.89 15.9947 32.581 16.204C32.272 16.4133 32.0587 16.7367 31.9879 17.1031L29.0807 32.2393C29.0164 32.2364 28.9518 32.2358 28.8875 32.2322L31.2839 19.7534C31.3546 19.3865 31.2768 19.0065 31.0675 18.6969C30.8583 18.3874 30.5348 18.1735 30.168 18.1023C29.8014 18.0323 29.422 18.1104 29.1129 18.3197C28.8039 18.5289 28.5903 18.8521 28.5192 19.2185L26.0244 32.2101L25.7725 32.2176C25.7725 32.2176 25.7662 32.2122 25.765 32.209L27.4883 23.2357C27.5405 22.9627 27.5016 22.6801 27.3777 22.4312C27.2538 22.1824 27.0517 21.9811 26.8024 21.8582C26.7016 21.8081 26.5944 21.772 26.4838 21.7509C26.1527 21.6876 25.8101 21.7582 25.531 21.9473C25.2519 22.1365 25.0593 22.4286 24.9954 22.7595L23.0401 32.9408C23.0364 32.9727 23.0326 33.0046 23.0289 33.0365C22.6596 34.6218 22.4848 39.529 22.2727 40.6322C22.1207 41.426 22.4262 42.8306 22.6458 43.6786L20.9617 52.4487L30.1926 54.2206L31.5146 47.3369L31.5192 47.3375C32.0026 47.0311 32.4617 46.6881 32.8926 46.3115C32.957 46.2548 33.0137 46.19 33.0614 46.1187C33.0614 46.1187 36.1824 42.4728 36.2931 42.1847C36.4037 41.8966 39.6154 34.4647 39.6823 34.116C39.7492 33.7673 40.8794 31.4887 40.5348 31.2559ZM26.8063 21.8709L26.8057 21.8755L26.8063 21.8709Z" fill="#FAB29A"/>
<path d="M26.8109 21.8784L26.8047 21.8706L26.8109 21.8784Z" fill="#FAB29A"/>
<path d="M26.8109 21.8784L26.8047 21.8706L26.8109 21.8784Z" fill="#FAB29A"/>
<path d="M25.7702 32.2218C25.7702 32.2218 25.7639 32.2165 25.7627 32.2132L25.7803 32.1221L25.7702 32.2218Z" fill="#FAB29A"/>
<g style="mix-blend-mode:multiply" opacity="0.5">
<path d="M26.709 21.8274C26.709 21.8274 27.0393 22.1101 26.8617 22.984C26.6841 23.8579 25.3539 30.9369 25.3842 31.3962C25.4144 31.8556 25.7696 32.222 25.7696 32.222L27.5105 23.1576C27.5105 23.1576 27.6493 22.2137 26.709 21.8274Z" fill="#CC8A79"/>
</g>
<g style="mix-blend-mode:multiply" opacity="0.5">
<path d="M30.1666 18.1034C30.1666 18.1034 30.7932 18.3483 30.4989 19.8715C30.2046 21.3947 28.2395 30.2959 28.348 31.067C28.4565 31.8381 28.8862 32.2333 28.8862 32.2333L31.3317 19.4984C31.3317 19.4984 31.3103 18.2979 30.1666 18.1034Z" fill="#CC8A79"/>
</g>
<g style="mix-blend-mode:multiply" opacity="0.5">
<path d="M33.6353 15.9837C33.6353 15.9837 34.35 16.2651 34.079 17.4569C33.8081 18.6487 31.38 29.9688 31.5978 31.0968C31.8155 32.2249 31.9228 32.3668 31.9228 32.3668L34.7518 17.6364C34.7518 17.6364 35.0343 16.3258 33.6353 15.9837Z" fill="#CC8A79"/>
</g>
<g style="mix-blend-mode:multiply" opacity="0.5">
<path d="M35.9787 20.4751C35.9787 20.4751 36.5201 20.9094 36.3229 21.9374C36.1258 22.9653 34.1718 31.4944 34.2209 32.471C34.27 33.4477 34.6258 35.7653 35.1488 36.765C35.1488 36.765 35.1822 35.6031 35.1666 34.4656C35.1349 32.2198 35.0214 32.8949 35.09 32.578C35.2577 31.8015 37.0981 22.1235 37.0981 22.1235C37.0981 22.1235 37.3743 20.7483 35.9787 20.4751Z" fill="#CC8A79"/>
</g>
<g style="mix-blend-mode:multiply" opacity="0.5">
<path d="M30.8324 50.8667L31.3258 48.2988C31.3486 48.2746 31.3851 47.9031 31.4074 47.8772L22.1501 46.2385L21.4631 49.5268L30.8324 50.8667Z" fill="#CC8A79"/>
</g>
<path d="M30.8068 56.2269L31.4842 52.9544L32.25 49.255L21.3483 46.9552L20.495 50.6529L19.9357 53.0729L30.8068 56.2269Z" fill="white"/>
<g style="mix-blend-mode:multiply">
<path d="M30.8072 56.227L31.4846 52.9545L20.4953 50.653L19.9361 53.073L30.8072 56.227Z" fill="#B3B3B3"/>
</g>
<path d="M15.4648 66.5985L28.131 69.15L32.087 54.5921L31.1882 54.3708L30.0845 54.0709L28.4672 53.6324L25.8748 52.9274L25.2166 52.7489L20.648 51.5073L20.3146 51.416L19.8466 51.2897L18.2004 58.391L15.4648 66.5985Z" fill="black"/>
<path d="M30.1783 59.6487C30.4533 59.8187 30.7846 59.8724 31.0992 59.7982C31.4139 59.7239 31.6861 59.5277 31.8561 59.2527C31.9404 59.1165 31.997 58.9651 32.0227 58.8071C32.0484 58.6491 32.0427 58.4875 32.0059 58.3317C31.9691 58.1759 31.902 58.0288 31.8084 57.899C31.7147 57.7691 31.5964 57.659 31.4601 57.5749C31.1851 57.4049 30.8539 57.3511 30.5392 57.4254C30.2246 57.4997 29.9523 57.6959 29.7823 57.9709C29.6124 58.2459 29.5586 58.5771 29.6328 58.8918C29.7071 59.2064 29.9033 59.4787 30.1783 59.6487Z" fill="#333333"/>
<g style="mix-blend-mode:multiply" opacity="0.5">
<path d="M36.8709 52.8273L36.2623 50.2154C36.238 50.1925 36.1774 49.782 36.1532 49.7583L45.2554 47.4083L46.0247 50.6088L36.8709 52.8273Z" fill="#CC8A79"/>
</g>
<path d="M37.5668 58.0203L36.6312 54.8126L35.5738 51.1857L46.2581 48.0266L47.4029 51.6436L48.1524 54.0126L37.5668 58.0203Z" fill="white"/>
<g style="mix-blend-mode:multiply">
<path d="M37.5656 58.0205L36.63 54.8129L47.4017 51.6439L48.1512 54.0129L37.5656 58.0205Z" fill="#B3B3B3"/>
</g>
<path d="M53.6798 67.1399L41.2559 70.6902L36.1558 56.4936L37.0338 56.2013L38.1093 55.8142L39.6868 55.2486L42.2153 54.3399L42.8573 54.1101L47.3123 52.5088L47.6379 52.3913L48.0944 52.2276L50.3004 59.1763L53.6798 67.1399Z" fill="black"/>
<path d="M39.1059 61.3641C38.8321 61.536 38.5012 61.5921 38.186 61.52C37.8709 61.448 37.5972 61.2536 37.4253 60.9798C37.2548 60.7056 37.1995 60.3751 37.2717 60.0603C37.3438 59.7455 37.5374 59.472 37.8104 59.2994C37.946 59.2143 38.0971 59.1568 38.2549 59.1301C38.4128 59.1034 38.5743 59.1081 38.7304 59.1438C38.8864 59.1796 39.0339 59.2457 39.1644 59.3385C39.2949 59.4312 39.4058 59.5488 39.4909 59.6844C39.5759 59.82 39.6334 59.971 39.6601 60.1288C39.6868 60.2865 39.6821 60.448 39.6464 60.604C39.6106 60.76 39.5445 60.9074 39.4517 61.0379C39.359 61.1683 39.2415 61.2791 39.1059 61.3641Z" fill="#333333"/>
</g>
</svg>
